<mxfile host="app.diagrams.net" modified="2022-02-06T15:08:23.634Z" agent="5.0 (Windows NT 10.0; Win64; x64) AppleWebKit/537.36 (KHTML, like Gecko) Chrome/97.0.4692.99 Safari/537.36" etag="zweqEwwup9peBGohyKp2" version="15.2.9" type="github">
  <diagram id="kgpKYQtTHZ0yAKxKKP6v" name="Page-1">
    <mxGraphModel dx="1422" dy="794" grid="1" gridSize="10" guides="1" tooltips="1" connect="1" arrows="1" fold="1" page="1" pageScale="1" pageWidth="850" pageHeight="1100" math="0" shadow="0">
      <root>
        <mxCell id="0" />
        <mxCell id="1" parent="0" />
        <mxCell id="3nuBFxr9cyL0pnOWT2aG-1" value="User" style="shape=umlLifeline;perimeter=lifelinePerimeter;container=1;collapsible=0;recursiveResize=0;rounded=0;shadow=0;strokeWidth=1;" parent="1" vertex="1">
          <mxGeometry x="20" y="85" width="100" height="490" as="geometry" />
        </mxCell>
        <mxCell id="3nuBFxr9cyL0pnOWT2aG-2" value="" style="points=[];perimeter=orthogonalPerimeter;rounded=0;shadow=0;strokeWidth=1;" parent="3nuBFxr9cyL0pnOWT2aG-1" vertex="1">
          <mxGeometry x="45" y="70" width="10" height="420" as="geometry" />
        </mxCell>
        <mxCell id="3nuBFxr9cyL0pnOWT2aG-5" value="Payment Service" style="shape=umlLifeline;perimeter=lifelinePerimeter;container=1;collapsible=0;recursiveResize=0;rounded=0;shadow=0;strokeWidth=1;" parent="1" vertex="1">
          <mxGeometry x="140" y="80" width="100" height="500" as="geometry" />
        </mxCell>
        <mxCell id="3nuBFxr9cyL0pnOWT2aG-6" value="" style="points=[];perimeter=orthogonalPerimeter;rounded=0;shadow=0;strokeWidth=1;" parent="3nuBFxr9cyL0pnOWT2aG-5" vertex="1">
          <mxGeometry x="45" y="80" width="10" height="420" as="geometry" />
        </mxCell>
        <mxCell id="ikTmtLyOP_5VFvTUV_Do-5" value="" style="endArrow=classic;html=1;startArrow=none;entryX=1.4;entryY=0.09;entryDx=0;entryDy=0;entryPerimeter=0;exitX=1.1;exitY=0.02;exitDx=0;exitDy=0;exitPerimeter=0;" edge="1" parent="3nuBFxr9cyL0pnOWT2aG-5" source="3nuBFxr9cyL0pnOWT2aG-6" target="3nuBFxr9cyL0pnOWT2aG-6">
          <mxGeometry width="50" height="50" relative="1" as="geometry">
            <mxPoint x="180" y="100" as="sourcePoint" />
            <mxPoint x="60" y="130" as="targetPoint" />
            <Array as="points">
              <mxPoint x="110" y="88" />
              <mxPoint x="140" y="88" />
              <mxPoint x="140" y="116" />
            </Array>
          </mxGeometry>
        </mxCell>
        <mxCell id="ikTmtLyOP_5VFvTUV_Do-27" value="Select Service" style="verticalAlign=bottom;endArrow=block;entryX=0;entryY=0;shadow=0;strokeWidth=1;" edge="1" parent="3nuBFxr9cyL0pnOWT2aG-5">
          <mxGeometry relative="1" as="geometry">
            <mxPoint x="55" y="140.0000000000008" as="sourcePoint" />
            <mxPoint x="165" y="140.0000000000008" as="targetPoint" />
          </mxGeometry>
        </mxCell>
        <mxCell id="3nuBFxr9cyL0pnOWT2aG-7" value="return" style="verticalAlign=bottom;endArrow=open;dashed=1;endSize=8;exitX=0;exitY=0.95;shadow=0;strokeWidth=1;" parent="1" source="3nuBFxr9cyL0pnOWT2aG-6" target="3nuBFxr9cyL0pnOWT2aG-2" edge="1">
          <mxGeometry relative="1" as="geometry">
            <mxPoint x="275" y="236" as="targetPoint" />
          </mxGeometry>
        </mxCell>
        <mxCell id="3nuBFxr9cyL0pnOWT2aG-8" value="User  agree to pay" style="verticalAlign=bottom;endArrow=block;entryX=0;entryY=0;shadow=0;strokeWidth=1;" parent="1" source="3nuBFxr9cyL0pnOWT2aG-2" target="3nuBFxr9cyL0pnOWT2aG-6" edge="1">
          <mxGeometry relative="1" as="geometry">
            <mxPoint x="275" y="160" as="sourcePoint" />
          </mxGeometry>
        </mxCell>
        <mxCell id="3nuBFxr9cyL0pnOWT2aG-9" value="Get purchase Detail" style="verticalAlign=bottom;endArrow=block;shadow=0;strokeWidth=1;" parent="1" edge="1">
          <mxGeometry x="0.1038" y="80" relative="1" as="geometry">
            <mxPoint x="330" y="300" as="sourcePoint" />
            <mxPoint x="603" y="300" as="targetPoint" />
            <Array as="points">
              <mxPoint x="420" y="300" />
              <mxPoint x="330" y="300" />
              <mxPoint x="520" y="300" />
            </Array>
            <mxPoint as="offset" />
          </mxGeometry>
        </mxCell>
        <mxCell id="ikTmtLyOP_5VFvTUV_Do-1" value="CDL/Strata" style="shape=umlLifeline;perimeter=lifelinePerimeter;container=1;collapsible=0;recursiveResize=0;rounded=0;shadow=0;strokeWidth=1;" vertex="1" parent="1">
          <mxGeometry x="550" y="80" width="110" height="480" as="geometry" />
        </mxCell>
        <mxCell id="ikTmtLyOP_5VFvTUV_Do-2" value="" style="points=[];perimeter=orthogonalPerimeter;rounded=0;shadow=0;strokeWidth=1;" vertex="1" parent="ikTmtLyOP_5VFvTUV_Do-1">
          <mxGeometry x="50" y="80" width="10" height="400" as="geometry" />
        </mxCell>
        <mxCell id="ikTmtLyOP_5VFvTUV_Do-3" value="Database&#xa;" style="shape=umlLifeline;perimeter=lifelinePerimeter;container=1;collapsible=0;recursiveResize=0;rounded=0;shadow=0;strokeWidth=1;" vertex="1" parent="1">
          <mxGeometry x="730" y="80" width="100" height="480" as="geometry" />
        </mxCell>
        <mxCell id="ikTmtLyOP_5VFvTUV_Do-4" value="" style="points=[];perimeter=orthogonalPerimeter;rounded=0;shadow=0;strokeWidth=1;" vertex="1" parent="ikTmtLyOP_5VFvTUV_Do-3">
          <mxGeometry x="45" y="80" width="10" height="400" as="geometry" />
        </mxCell>
        <mxCell id="ikTmtLyOP_5VFvTUV_Do-11" value="Quote Service" style="shape=umlLifeline;perimeter=lifelinePerimeter;container=1;collapsible=0;recursiveResize=0;rounded=0;shadow=0;strokeWidth=1;" vertex="1" parent="1">
          <mxGeometry x="440" y="80" width="100" height="490" as="geometry" />
        </mxCell>
        <mxCell id="ikTmtLyOP_5VFvTUV_Do-12" value="" style="points=[];perimeter=orthogonalPerimeter;rounded=0;shadow=0;strokeWidth=1;" vertex="1" parent="ikTmtLyOP_5VFvTUV_Do-11">
          <mxGeometry x="45" y="70" width="10" height="420" as="geometry" />
        </mxCell>
        <mxCell id="ikTmtLyOP_5VFvTUV_Do-13" value="validation" style="verticalAlign=bottom;endArrow=block;shadow=0;strokeWidth=1;" edge="1" parent="ikTmtLyOP_5VFvTUV_Do-11">
          <mxGeometry x="-1" y="94" relative="1" as="geometry">
            <mxPoint x="-110" y="150" as="sourcePoint" />
            <mxPoint x="45" y="150" as="targetPoint" />
            <Array as="points" />
            <mxPoint x="-79" y="49" as="offset" />
          </mxGeometry>
        </mxCell>
        <mxCell id="ikTmtLyOP_5VFvTUV_Do-7" value="Send register payment" style="text;html=1;align=center;verticalAlign=middle;resizable=0;points=[];autosize=1;strokeColor=none;fillColor=none;" vertex="1" parent="1">
          <mxGeometry x="340" y="280" width="140" height="20" as="geometry" />
        </mxCell>
        <mxCell id="ikTmtLyOP_5VFvTUV_Do-19" value="Return payment outcome" style="text;html=1;align=center;verticalAlign=middle;resizable=0;points=[];autosize=1;strokeColor=none;fillColor=none;" vertex="1" parent="1">
          <mxGeometry x="340" y="310" width="150" height="20" as="geometry" />
        </mxCell>
        <mxCell id="ikTmtLyOP_5VFvTUV_Do-21" value="" style="verticalAlign=bottom;endArrow=block;shadow=0;strokeWidth=1;exitX=1.1;exitY=0.373;exitDx=0;exitDy=0;exitPerimeter=0;" edge="1" parent="1" source="ikTmtLyOP_5VFvTUV_Do-2">
          <mxGeometry x="-0.5695" y="40" relative="1" as="geometry">
            <mxPoint x="620" y="310" as="sourcePoint" />
            <mxPoint x="779" y="310" as="targetPoint" />
            <Array as="points">
              <mxPoint x="678" y="310" />
            </Array>
            <mxPoint as="offset" />
          </mxGeometry>
        </mxCell>
        <mxCell id="ikTmtLyOP_5VFvTUV_Do-9" value="Save Tracking" style="text;html=1;strokeColor=none;fillColor=none;align=center;verticalAlign=middle;whiteSpace=wrap;rounded=0;" vertex="1" parent="1">
          <mxGeometry x="660" y="290" width="80" height="20" as="geometry" />
        </mxCell>
        <mxCell id="ikTmtLyOP_5VFvTUV_Do-22" value="" style="verticalAlign=bottom;endArrow=block;shadow=0;strokeWidth=1;exitX=1.3;exitY=0.475;exitDx=0;exitDy=0;exitPerimeter=0;" edge="1" parent="1" source="ikTmtLyOP_5VFvTUV_Do-2">
          <mxGeometry x="-0.5695" y="40" relative="1" as="geometry">
            <mxPoint x="620" y="350" as="sourcePoint" />
            <mxPoint x="779.5" y="350" as="targetPoint" />
            <Array as="points">
              <mxPoint x="678.5" y="350" />
            </Array>
            <mxPoint as="offset" />
          </mxGeometry>
        </mxCell>
        <mxCell id="ikTmtLyOP_5VFvTUV_Do-23" value="Save Tracking" style="text;html=1;strokeColor=none;fillColor=none;align=center;verticalAlign=middle;whiteSpace=wrap;rounded=0;" vertex="1" parent="1">
          <mxGeometry x="660" y="320" width="80" height="20" as="geometry" />
        </mxCell>
        <mxCell id="ikTmtLyOP_5VFvTUV_Do-24" value="Handlers" style="shape=umlLifeline;perimeter=lifelinePerimeter;container=1;collapsible=0;recursiveResize=0;rounded=0;shadow=0;strokeWidth=1;" vertex="1" parent="1">
          <mxGeometry x="260" y="80" width="100" height="495" as="geometry" />
        </mxCell>
        <mxCell id="ikTmtLyOP_5VFvTUV_Do-25" value="" style="points=[];perimeter=orthogonalPerimeter;rounded=0;shadow=0;strokeWidth=1;" vertex="1" parent="ikTmtLyOP_5VFvTUV_Do-24">
          <mxGeometry x="45" y="70" width="10" height="420" as="geometry" />
        </mxCell>
        <mxCell id="ikTmtLyOP_5VFvTUV_Do-17" value="" style="points=[];perimeter=orthogonalPerimeter;rounded=0;shadow=0;strokeWidth=1;" vertex="1" parent="ikTmtLyOP_5VFvTUV_Do-24">
          <mxGeometry x="55" y="140" width="10" height="45" as="geometry" />
        </mxCell>
        <mxCell id="ikTmtLyOP_5VFvTUV_Do-14" value="return" style="verticalAlign=bottom;endArrow=open;dashed=1;endSize=8;shadow=0;strokeWidth=1;" edge="1" parent="ikTmtLyOP_5VFvTUV_Do-24">
          <mxGeometry relative="1" as="geometry">
            <mxPoint x="65" y="177" as="targetPoint" />
            <mxPoint x="220" y="177" as="sourcePoint" />
            <Array as="points" />
          </mxGeometry>
        </mxCell>
        <mxCell id="ikTmtLyOP_5VFvTUV_Do-18" value="" style="points=[];perimeter=orthogonalPerimeter;rounded=0;shadow=0;strokeWidth=1;" vertex="1" parent="ikTmtLyOP_5VFvTUV_Do-24">
          <mxGeometry x="55" y="205" width="10" height="65" as="geometry" />
        </mxCell>
        <mxCell id="ikTmtLyOP_5VFvTUV_Do-10" value="" style="verticalAlign=bottom;endArrow=open;dashed=1;endSize=8;shadow=0;strokeWidth=1;exitX=-0.4;exitY=0.435;exitDx=0;exitDy=0;exitPerimeter=0;" edge="1" parent="1" source="ikTmtLyOP_5VFvTUV_Do-2">
          <mxGeometry x="-0.0303" relative="1" as="geometry">
            <mxPoint x="330" y="334" as="targetPoint" />
            <mxPoint x="561" y="334" as="sourcePoint" />
            <Array as="points">
              <mxPoint x="405" y="334" />
            </Array>
            <mxPoint as="offset" />
          </mxGeometry>
        </mxCell>
      </root>
    </mxGraphModel>
  </diagram>
</mxfile>
